<svg width="34" height="34" viewBox="0 0 34 34" fill="none" xmlns="http://www.w3.org/2000/svg">
<path d="M31.1667 0H2.83333C1.275 0 0 1.7 0 3.77778V30.2222C0 32.3 1.275 34 2.83333 34H31.1667C32.725 34 33.9858 32.3 33.9858 30.2222L34 3.77778C34 1.7 32.725 0 31.1667 0ZM11.3333 5.66667C13.685 5.66667 15.5833 8.19778 15.5833 11.3333C15.5833 14.4689 13.685 17 11.3333 17C8.98167 17 7.08333 14.4689 7.08333 11.3333C7.08333 8.19778 8.98167 5.66667 11.3333 5.66667ZM19.8333 28.3333H2.83333V26.4444C2.83333 22.6667 8.5 20.5889 11.3333 20.5889C14.1667 20.5889 19.8333 22.6667 19.8333 26.4444V28.3333ZM25.2875 20.7778H27.6108L29.75 24.5556L26.9308 28.3144C25.075 26.4633 23.7008 23.8189 23.0633 20.7778C22.8083 19.5689 22.6667 18.3033 22.6667 17C22.6667 15.6967 22.8083 14.4311 23.0633 13.2222C23.7008 10.1622 25.075 7.53667 26.9308 5.68556L29.75 9.44444L27.6108 13.2222H25.2875C24.9758 14.4122 24.7917 15.6778 24.7917 17C24.7917 18.3222 24.9758 19.5878 25.2875 20.7778Z" fill="black"/>
</svg>