<svg width="34" height="34" viewBox="0 0 34 34" fill="none" xmlns="http://www.w3.org/2000/svg">
<path fill-rule="evenodd" clip-rule="evenodd" d="M22.6668 12.75C22.6668 14.2529 22.0698 15.6942 21.0071 16.7569C19.9444 17.8196 18.5031 18.4167 17.0002 18.4167C15.4973 18.4167 14.0559 17.8196 12.9932 16.7569C11.9305 15.6942 11.3335 14.2529 11.3335 12.75C11.3335 11.2471 11.9305 9.80577 12.9932 8.74306C14.0559 7.68035 15.4973 7.08333 17.0002 7.08333C18.5031 7.08333 19.9444 7.68035 21.0071 8.74306C22.0698 9.80577 22.6668 11.2471 22.6668 12.75ZM19.8335 12.75C19.8335 13.5014 19.535 14.2221 19.0036 14.7535C18.4723 15.2848 17.7516 15.5833 17.0002 15.5833C16.2487 15.5833 15.528 15.2848 14.9967 14.7535C14.4653 14.2221 14.1668 13.5014 14.1668 12.75C14.1668 11.9986 14.4653 11.2779 14.9967 10.7465C15.528 10.2152 16.2487 9.91667 17.0002 9.91667C17.7516 9.91667 18.4723 10.2152 19.0036 10.7465C19.535 11.2779 19.8335 11.9986 19.8335 12.75Z" fill="black"/>
<path fill-rule="evenodd" clip-rule="evenodd" d="M17.0001 1.41667C8.39383 1.41667 1.41675 8.39375 1.41675 17C1.41675 25.6062 8.39383 32.5833 17.0001 32.5833C25.6063 32.5833 32.5834 25.6062 32.5834 17C32.5834 8.39375 25.6063 1.41667 17.0001 1.41667ZM4.25008 17C4.25008 19.9608 5.26016 22.6865 6.95308 24.8512C8.14229 23.2902 9.67613 22.0251 11.4349 21.1547C13.1937 20.2843 15.1298 19.8321 17.0922 19.8333C19.0293 19.8311 20.9413 20.2712 22.6825 21.1202C24.4237 21.9692 25.948 23.2046 27.1392 24.7322C28.3666 23.1223 29.1931 21.2432 29.5502 19.2505C29.9073 17.2578 29.7847 15.2087 29.1926 13.2727C28.6005 11.3368 27.556 9.56965 26.1454 8.11755C24.7347 6.66545 22.9986 5.57013 21.0806 4.92222C19.1626 4.27431 17.1179 4.09243 15.1157 4.39163C13.1135 4.69083 11.2113 5.46251 9.5665 6.64283C7.92172 7.82314 6.58165 9.37815 5.65716 11.1792C4.73267 12.9802 4.25034 14.9755 4.25008 17ZM17.0001 29.75C14.0731 29.7547 11.2345 28.7478 8.96475 26.8997C9.87823 25.5915 11.0943 24.5235 12.5094 23.7865C13.9244 23.0495 15.4967 22.6653 17.0922 22.6667C18.6677 22.6653 20.2209 23.0399 21.6226 23.7594C23.0244 24.4788 24.2342 25.5224 25.1516 26.8033C22.8643 28.7116 19.9788 29.7547 17.0001 29.75Z" fill="black"/>
</svg>